<?xml version="1.0" standalone="no"?><!DOCTYPE svg PUBLIC "-//W3C//DTD SVG 1.1//EN" "http://www.w3.org/Graphics/SVG/1.1/DTD/svg11.dtd"><svg t="1634174393286" class="icon" viewBox="0 0 1024 1024" version="1.1" xmlns="http://www.w3.org/2000/svg" p-id="2616" xmlns:xlink="http://www.w3.org/1999/xlink" width="200" height="200"><defs><style type="text/css"></style></defs><path d="M952.085622 474.858078c-10.246365 0.972141-23.87271 8.809643-23.87271 18.34174-0.022513 23.432689-2.475378 56.773028-6.66377 80.116689-25.63996 106.366539-84.649935 186.835246-168.341033 244.36245-90.285283 62.220087-193.666838 86.108147-302.193577 67.255777-115.500571-20.040429-199.929472-72.742744-261.98583-170.000835l122.979916 13.694907c10.121522 0.972141 13.384845-12.438287 14.46341-22.579251 1.101077-10.141988-6.386454-19.209504-16.689101-20.289092l-170.564677-17.656125c-9.064446-0.806365-17.881253 4.970198-20.151969 13.901615L77.611124 845.750293c-2.495844 9.874905 3.620457 19.904329 13.652951 22.360264 1.554402 0.379647 10.222829 0.539282 11.730159 0.539282 8.4126 0 16.059767-5.605671 18.197454-13.990642l32.682353-109.730147c67.903529 103.443977 166.591179 162.988118 290.641473 184.516434 26.406416 4.590552 52.855812 6.861268 79.126128 6.861268 91.523483 0 180.708711-27.488051 257.250992-80.230276 98.499361-67.864644 164.221202-169.416528 185.115068-285.950637 4.567016-25.465998 6.886851-51.329039 6.91141-76.906577C972.897623 483.688187 961.968713 475.832266 952.085622 474.858078z" p-id="2617" fill="#ffffff"></path><path d="M950.061522 474.754724c0.667196 0 1.343601 0.035816 2.025123 0.103354 0.707105-0.066515 1.39886-0.103354 2.068102-0.103354C954.129164 474.754724 950.03594 474.754724 950.061522 474.754724z" p-id="2618" fill="#ffffff"></path><path d="M97.886913 511.717567c10.246365-0.972141 23.873734-8.809643 23.873734-18.34174 0.022513-23.432689 2.475378-56.773028 6.66377-80.116689 25.63996-106.366539 84.649935-186.835246 168.341033-244.36245 90.285283-62.220087 193.666838-86.108147 302.193577-67.255777 115.500571 20.040429 199.929472 72.742744 261.98583 170.000835l-122.979916-13.694907c-10.121522-0.972141-13.384845 12.438287-14.46341 22.579251-1.101077 10.141988 6.386454 19.209504 16.689101 20.289092l170.564677 17.656125c9.064446 0.806365 17.881253-4.970198 20.151969-13.901615l41.456181-163.746388c2.495844-9.874905-3.620457-19.904329-13.652951-22.360264-1.554402-0.379647-10.222829-0.539282-11.730159-0.539282-8.4126 0-16.059767 5.605671-18.197454 13.990642L896.099517 241.647619C828.195987 138.203642 729.508337 78.658478 605.458043 57.130162c-26.406416-4.590552-52.855812-6.861268-79.126128-6.861268-91.523483 0-180.708711 27.488051-257.250992 80.230276C170.581562 198.364837 104.858698 299.915697 83.964832 416.449807c-4.567016 25.465998-6.886851 51.329039-6.91141 76.906577C77.076958 502.887458 88.004845 510.744403 97.886913 511.717567z" p-id="2619" fill="#ffffff"></path><path d="M99.912036 511.820921c-0.667196 0-1.343601-0.035816-2.025123-0.103354-0.707105 0.066515-1.39886 0.103354-2.068102 0.103354C95.844394 511.820921 99.937618 511.820921 99.912036 511.820921z" p-id="2620" fill="#ffffff"></path><path d="M523.577175 746.170321c13.299911 0 24.121374-10.417257 24.121374-23.242354L547.698548 615.006002 696.605973 615.006002c13.302981 0 24.121374-10.387581 24.121374-23.213701 0-12.827143-10.79588-23.243377-24.121374-23.243377L547.699572 568.548924l0-91.305519 148.878772 0c13.30912 0 24.121374-10.393721 24.121374-23.217794 0-12.82612-10.791787-23.216771-24.121374-23.216771l-99.616812 0 72.740698-125.842103c6.472412-11.220552 2.276856-25.349341-9.343809-31.599695s-26.325575-2.233877-32.797987 9.010211L541.769512 430.836469l-30.667463 0-85.786829-148.459217c-6.473435-11.216459-21.209044-15.260565-32.803103-9.010211-11.619642 6.250354-15.813151 20.379143-9.337669 31.599695l72.734558 125.842103L350.547353 430.80884c-13.301957 0-24.119327 10.390651-24.119327 23.216771 0 12.825097 10.793834 23.217794 24.119327 23.217794L499.455801 477.243405l0 91.305519L350.547353 568.548924c-13.301957 0-24.119327 10.416234-24.119327 23.243377 0 12.825097 10.793834 23.213701 24.119327 23.213701L499.455801 615.006002l0 107.921965C499.455801 735.753063 510.249635 746.170321 523.577175 746.170321z" p-id="2621" fill="#ffffff"></path></svg>