<?xml version="1.0" standalone="no"?><!DOCTYPE svg PUBLIC "-//W3C//DTD SVG 1.1//EN" "http://www.w3.org/Graphics/SVG/1.1/DTD/svg11.dtd"><svg t="1627375794350" class="icon" viewBox="0 0 1024 1024" version="1.1" xmlns="http://www.w3.org/2000/svg" p-id="3099" xmlns:xlink="http://www.w3.org/1999/xlink" width="200" height="200"><defs><style type="text/css">@font-face { font-family: feedback-iconfont; src: url("//at.alicdn.com/t/font_1031158_1uhr8ri0pk5.eot?#iefix") format("embedded-opentype"), url("//at.alicdn.com/t/font_1031158_1uhr8ri0pk5.woff2") format("woff2"), url("//at.alicdn.com/t/font_1031158_1uhr8ri0pk5.woff") format("woff"), url("//at.alicdn.com/t/font_1031158_1uhr8ri0pk5.ttf") format("truetype"), url("//at.alicdn.com/t/font_1031158_1uhr8ri0pk5.svg#iconfont") format("svg"); }
</style></defs><path d="M932.124 980.31H91.876a35.1 35.1 0 0 1-34.987-34.987c0-19.229 15.758-34.987 34.987-34.987h840.248c19.229 0 34.987 15.758 34.987 34.987a35.1 35.1 0 0 1-34.987 34.986z m0-140.004H91.876a35.1 35.1 0 0 1-34.987-35.044V630.33c0-57.8 47.218-105.074 105.017-105.074H385.99c-6.997-41.984-28.046-82.261-57.799-117.248a244.622 244.622 0 0 1-61.27-162.816c0-66.503 26.283-129.536 75.265-176.754C391.225 21.163 454.257-1.593 522.524 0.171c126.01 5.233 232.79 113.777 234.553 239.786 1.707 63.033-22.755 124.303-64.796 171.52-29.753 31.517-47.218 70.03-54.272 113.778h224.085c57.742 0 105.017 47.275 105.017 105.074v174.99a35.1 35.1 0 0 1-34.987 35.044z m-805.262-70.03h770.162v-140.06a35.1 35.1 0 0 0-34.987-35.044H599.495a35.1 35.1 0 0 1-34.987-34.987c0-73.557 26.283-143.53 75.264-196.04 31.517-33.28 47.218-77.027 47.218-122.538-1.706-91.022-76.97-168.05-167.993-171.577-48.981-1.706-94.492 15.758-127.772 49.038a173.568 173.568 0 0 0-54.272 126.01c0 42.04 15.758 84.024 43.804 115.54 50.745 57.743 78.735 127.773 78.735 199.567a35.1 35.1 0 0 1-34.987 34.987h-262.6a35.1 35.1 0 0 0-34.986 35.043V770.22z" p-id="3100" fill="#178878"></path></svg>