<?xml version="1.0" standalone="no"?><!DOCTYPE svg PUBLIC "-//W3C//DTD SVG 1.1//EN" "http://www.w3.org/Graphics/SVG/1.1/DTD/svg11.dtd"><svg t="1629079061588" class="icon" viewBox="0 0 1024 1024" version="1.1" xmlns="http://www.w3.org/2000/svg" p-id="3706" xmlns:xlink="http://www.w3.org/1999/xlink" width="200" height="200"><defs><style type="text/css"></style></defs><path d="M324.928 949.696h-107.52c-37.248 0-82.56-36.032-82.56-65.408V133.952c0-33.408 25.536-59.648 58.752-59.648h548.032c12.544 0 34.88 0 34.88 59.648v565.696c0 20.736 16.768 37.504 36.48 37.504 19.776 0 36.544-16.768 36.544-37.504v-565.76C849.536 49.728 808.96 0 741.632 0H193.6C120.32 0 64 58.432 64 133.952v750.336C64 962.112 147.456 1024 217.472 1024h107.52a36.352 36.352 0 0 0 35.712-37.12c0-20.736-16-37.184-35.776-37.184z" p-id="3707" fill="#ffffff"></path><path d="M621.44 186.432a24.128 24.128 0 0 0-34.304 0l-130.368 131.84L326.4 186.368a24.128 24.128 0 0 0-34.368 0 24.768 24.768 0 0 0 0 34.752l110.016 111.168H310.912c-13.44 0-24.32 10.816-24.32 24.32 0 13.632 10.88 24.384 24.32 24.384h122.432v73.024H310.912c-13.44 0-24.32 10.752-24.32 24.32 0 13.632 10.88 24.32 24.32 24.32h122.432v74.304c0 13.568 10.688 24.576 24.128 24.576s24.064-11.008 24.064-24.576v-74.24h121.024c13.44 0 24.32-10.752 24.32-24.32 0-13.632-10.88-24.32-24.32-24.32H481.536V380.992h121.024c13.44 0 24.32-10.752 24.32-24.32s-10.88-24.32-24.32-24.32H511.488l110.016-111.232a24.768 24.768 0 0 0 0-34.752zM923.904 807.552H458.752l61.568-64.512a39.168 39.168 0 0 0 0-53.568 34.944 34.944 0 0 0-51.072 0l-117.632 123.392a37.632 37.632 0 0 0-17.6 32.192 37.76 37.76 0 0 0 15.872 31.104l118.272 123.968a35.2 35.2 0 0 0 51.072 0 39.168 39.168 0 0 0 0-53.568l-61.12-64h465.792c19.904 0 36.096-16.64 36.096-37.504a36.672 36.672 0 0 0-36.096-37.504z" p-id="3708" fill="#ffffff"></path></svg>