<?xml version="1.0" standalone="no"?><!DOCTYPE svg PUBLIC "-//W3C//DTD SVG 1.1//EN" "http://www.w3.org/Graphics/SVG/1.1/DTD/svg11.dtd"><svg t="1629446149592" class="icon" viewBox="0 0 1024 1024" version="1.1" xmlns="http://www.w3.org/2000/svg" p-id="1914" xmlns:xlink="http://www.w3.org/1999/xlink" width="200" height="200"><defs><style type="text/css"></style></defs><path d="M822.222415 999.701986h-620.566965c-101.819428 0-178.370642-82.116104-178.370642-183.897687V260.940883c0-101.824589 76.549494-183.899408 178.370642-180.651645 18.165453 0.022363 32.873277 14.75255 32.873277 32.909401 0 16.295581-13.164793 36.650866-32.873277 36.650866-62.40762 0-109.460616 48.676877-109.460616 111.089658v551.572648c0 62.4059 47.052996 117.586904 109.460616 117.586903h620.566965c62.41106 0 106.417558-55.181004 106.417558-117.586903V257.644954c0-65.655383-44.006498-111.043212-106.417558-111.043212h-19.703324c-16.455561 0-32.873277-16.985387-32.873277-36.693871 0.022363-18.14137 14.725026-32.845754 32.873277-32.866396h19.703324c98.571665 0 176.423361 82.073099 176.301225 183.899408v554.863416c0 101.781583-74.476637 183.897688-176.301225 183.897687z m-121.409218-817.586439c-16.453841 0-32.868116-9.91531-32.868116-26.248736V50.792739c0-13.164793 13.164793-26.250456 32.868116-26.250455 19.708484 0 32.871557 9.793175 32.871557 26.250455v105.074072c0.00172 13.040937-13.163073 26.248735-32.871557 26.248736z m-18.280707 137.942188v462.835442c0 10.152699-6.746677 16.861531-16.863251 16.861531h-16.904537c-10.116575 0-16.863251-6.707112-16.863251-16.861531v-30.354885H388.601356v30.354885c0 10.152699-6.744957 16.861531-16.863252 16.861531h-16.861531c-10.15786 0-16.899376-6.707112-16.899376-16.861531V320.057735c0-10.116575 6.741516-16.906257 16.899376-16.906257H665.670959c10.116575 0 16.861531 6.789682 16.861531 16.906257z m-50.749734 42.539156H395.391038V500.582084h236.391718v-137.985193z m0 190.439658H395.391038v144.4876h236.391718v-144.4876zM602.284537 145.951501H405.299467c-13.200917 0-26.248735-13.042658-29.539504-32.873277 0-16.453841 13.083943-32.866396 29.539504-32.866396h196.98507c16.333426 0 29.496498 13.163073 29.496499 32.866396 0.00172 16.417716-13.083943 32.873277-29.496499 32.873277z m-295.555015 36.164046c-16.455561 0-32.788987-9.91531-32.868117-26.248736V50.792739c0-13.083943 13.163073-26.250456 32.868117-26.250455 16.453841 0 32.871557 9.793175 32.871556 26.250455v105.074072c0 13.040937-13.164793 26.248735-32.871556 26.248736z m0 0" p-id="1915" fill="#ffffff"></path></svg>