<?xml version="1.0" standalone="no"?><!DOCTYPE svg PUBLIC "-//W3C//DTD SVG 1.1//EN" "http://www.w3.org/Graphics/SVG/1.1/DTD/svg11.dtd"><svg t="1629938655253" class="icon" viewBox="0 0 1024 1024" version="1.1" xmlns="http://www.w3.org/2000/svg" p-id="2874" xmlns:xlink="http://www.w3.org/1999/xlink" width="200" height="200"><defs><style type="text/css"></style></defs><path d="M897.476608 673.87392h-60.70272v-202.3424h-303.5136V309.6576h80.93696c12.140544 0 20.23424-8.093696 20.23424-20.23424V127.54944c0-12.140544-8.093696-20.23424-20.23424-20.23424h-202.3424c-12.140544 0-20.23424 8.093696-20.23424 20.23424v161.87392c0 12.140544 8.093696 20.23424 20.23424 20.23424h80.939008v161.87392H189.27616v202.3424H128.57344c-12.140544 0-20.23424 8.091648-20.23424 20.23424v202.3424c0 12.140544 8.093696 20.23424 20.23424 20.23424h161.87392c12.140544 0 20.232192-8.093696 20.232192-20.23424v-202.3424c0-12.142592-8.093696-20.23424-20.232192-20.23424h-60.70272V512h263.047168v161.87392H432.08704c-12.140544 0-20.23424 8.091648-20.23424 20.23424v202.3424c0 12.140544 8.093696 20.23424 20.23424 20.23424h161.87392c12.140544 0 20.23424-8.093696 20.23424-20.23424v-202.3424c0-12.142592-8.093696-20.23424-20.23424-20.23424h-60.70272V512h263.04512v161.87392h-60.70272c-12.142592 0-20.23424 8.091648-20.23424 20.23424v202.3424c0 12.140544 8.091648 20.23424 20.23424 20.23424h161.87392c12.140544 0 20.23424-8.093696 20.23424-20.23424v-202.3424c0.002048-12.140544-8.093696-20.23424-20.232192-20.23424zM432.08704 147.78368h161.87392v121.40544h-161.87392V147.78368z m-161.87392 566.560768v161.871872H148.80768v-161.871872h121.40544z m303.515648 161.871872h-121.40544v-161.871872h121.40544v161.871872z m303.5136 0h-121.40544v-161.871872h121.40544v161.871872z" p-id="2875" fill="#ffffff"></path></svg>