<?xml version="1.0" standalone="no"?><!DOCTYPE svg PUBLIC "-//W3C//DTD SVG 1.1//EN" "http://www.w3.org/Graphics/SVG/1.1/DTD/svg11.dtd"><svg t="1629764149884" class="icon" viewBox="0 0 1024 1024" version="1.1" xmlns="http://www.w3.org/2000/svg" p-id="9029" xmlns:xlink="http://www.w3.org/1999/xlink" width="200" height="200"><defs><style type="text/css"></style></defs><path d="M512 19.692308c271.753846 0 492.307692 220.553846 492.307692 492.307692S783.753846 1004.307692 512 1004.307692 19.692308 783.753846 19.692308 512 240.246154 19.692308 512 19.692308z m0 65.476923C276.676923 85.169231 85.169231 276.676923 85.169231 512c0 235.323077 191.507692 426.830769 426.830769 426.830769 235.323077 0 426.830769-191.507692 426.830769-426.830769C938.830769 276.676923 747.323077 85.169231 512 85.169231z m124.612923 568.812307c9.767385 0 17.762462 7.936 17.762462 17.624616a17.742769 17.742769 0 0 1-17.762462 17.624615H352.531692a17.742769 17.742769 0 0 1-17.762461-17.624615c0-9.688615 7.995077-17.624615 17.762461-17.624616h284.081231z m12.425846-315.766153a78.828308 78.828308 0 0 1 0 111.911384l-149.149538 148.027077a54.882462 54.882462 0 0 1-35.505231 15.872l-68.352 2.638769h-1.772308c-15.104 0-26.643692-11.460923-26.643692-26.427077v-0.886153l2.658462-67.859693a54.114462 54.114462 0 0 1 15.990153-35.24923l150.035693-148.027077a80.265846 80.265846 0 0 1 112.738461 0z m-56.812307 11.44123c-11.539692 0-23.079385 4.411077-31.074462 13.233231l-149.149538 148.027077c-3.544615 3.544615-5.316923 7.049846-5.316924 11.460923l-2.678153 59.037539 58.604307-2.63877a14.375385 14.375385 0 0 0 11.539693-5.29723l149.149538-148.027077a43.401846 43.401846 0 0 0 0-62.562462c-7.995077-7.936-19.534769-13.233231-31.074461-13.233231z" p-id="9030" fill="#1296db"></path></svg>