<?xml version="1.0" standalone="no"?><!DOCTYPE svg PUBLIC "-//W3C//DTD SVG 1.1//EN" "http://www.w3.org/Graphics/SVG/1.1/DTD/svg11.dtd"><svg t="1629079145233" class="icon" viewBox="0 0 1024 1024" version="1.1" xmlns="http://www.w3.org/2000/svg" p-id="5453" xmlns:xlink="http://www.w3.org/1999/xlink" width="200" height="200"><defs><style type="text/css"></style></defs><path d="M983.7 619.7c-14.6-34.5-35.5-65.5-62.1-92-26.6-26.6-57.6-47.5-92.1-62.1-35.7-15.1-73.7-22.8-112.7-22.8s-77 7.7-112.7 22.8c-34.5 14.6-65.5 35.5-92.1 62.1-26.6 26.6-47.5 57.6-62.1 92-15.1 35.7-22.8 73.6-22.8 112.7s7.7 77 22.8 112.7c14.6 34.5 35.5 65.5 62.1 92 26.6 26.6 57.6 47.5 92.1 62.1 35.7 15.1 73.6 22.8 112.7 22.8 39.1 0 77-7.7 112.7-22.8 1.1-0.5 2.3-1 3.4-1.5 14.4-6.2 28.4-13.3 41.5-22 4.7-3.1 9.4-6.5 13.7-10.1 7-5.7 8-16 2.3-23.1-5.7-7-16.1-8.1-23.1-2.4-3.1 2.5-6.3 4.8-9.5 7-31.7 21.6-70.3 34.3-108.1 39.5-10.9 1.5-22 2.3-33 2.3-68.6 0-133.1-26.7-181.5-75.2C486.8 865.5 460 801 460 732.4s26.7-133 75.2-181.5 113-75.2 181.5-75.2c68.6 0 133.1 26.7 181.6 75.2s75.2 113 75.2 181.5c0 18.5-2 36.7-5.8 54.4-0.2 0.6-0.3 1.1-0.4 1.7 0 0-0.1 0.3-0.1 0.8-3.4 15-8.1 29.7-14.1 43.8-0.4 0.9-0.7 1.6-1 2.4-1.6 3.6-3.3 7.2-5.2 10.9-4.1 8.1-1 18 7.1 22.1 2.4 1.2 5 1.8 7.5 1.8 6 0 11.7-3.3 14.6-8.9 15.6-30.5 21.8-57.8 23.3-65.3 4.7-20.7 7-42 7-63.7 0-39.1-7.6-77-22.7-112.7z m-401.1 58.5c0 13.1 10.6 23.7 23.7 23.7h219.2c8.7 0 16.7-4.8 20.9-12.4 4.2-7.7 3.8-17-0.9-24.3L790.9 581c-7.1-11-21.8-14.1-32.9-7-11 7.1-14.1 21.8-7 32.9l30.8 47.5H606.3c-13.1 0-23.7 10.7-23.7 23.8zM851 786.6c0-13.1-10.6-23.8-23.8-23.8H608.1c-8.7 0-16.7 4.8-20.9 12.4-4.2 7.6-3.8 17 0.9 24.3l54.6 84.2c4.5 7 12.2 10.8 19.9 10.8 4.4 0 8.9-1.2 12.9-3.8 11-7.1 14.1-21.8 7-32.8l-30.8-47.5h175.5c13.2 0 23.8-10.7 23.8-23.8zM215.1 680.9c-13.1 0-23.8 10.6-23.8 23.8s10.6 23.8 23.8 23.8h118.8c13.1 0 23.7-10.6 23.7-23.8s-10.6-23.8-23.7-23.8H215.1z m506.2-411.8c0-13.1-10.6-23.7-23.7-23.7H205.2c-13.1 0-23.7 10.6-23.7 23.7s10.6 23.7 23.7 23.7h492.4c13.1 0 23.7-10.6 23.7-23.7zM404 885.9H292.9c-3.1 0-6.2 0.5-9 1.4H125.1c-25.6 0-46.4-20.8-46.4-46.4V109.5c0-25.6 20.8-46.4 46.4-46.4h659.8c25.6 0 46.4 20.8 46.4 46.4v279.1c0 16.9 13.7 30.5 30.5 30.5 15.8 0 28.8-12 30.4-27.4h0.2V109.5C892.3 50.2 844.1 2 784.8 2H125.1C65.8 2 17.6 50.2 17.6 109.5v731.4c0 59.3 48.2 107.5 107.5 107.5l182.8-1.4H404c16.9 0 30.5-13.7 30.5-30.5 0.1-17-13.6-30.6-30.5-30.6z m93.1-405.1c0-13.1-10.6-23.7-23.7-23.7H205.2c-13.1 0-23.7 10.6-23.7 23.7s10.6 23.7 23.7 23.7h268.2c13.1 0 23.7-10.6 23.7-23.7z" p-id="5454" fill="#ffffff"></path></svg>