<?xml version="1.0" standalone="no"?><!DOCTYPE svg PUBLIC "-//W3C//DTD SVG 1.1//EN" "http://www.w3.org/Graphics/SVG/1.1/DTD/svg11.dtd"><svg t="1631606706020" class="icon" viewBox="0 0 1024 1024" version="1.1" xmlns="http://www.w3.org/2000/svg" p-id="2871" xmlns:xlink="http://www.w3.org/1999/xlink" width="200" height="200"><defs><style type="text/css"></style></defs><path d="M362.982614 502.585676l-50.478357 120.811047a41.466981 41.466981 0 0 0 38.316663 62.346999h323.457108a41.393718 41.393718 0 0 0 38.316663-62.420262l-50.624883-121.690205a273.345067 273.345067 0 1 0-298.840667 0.732632zM511.853474 58.903627a214.44144 214.44144 0 0 1 99.198397 404.559491 29.305287 29.305287 0 0 0-13.480432 37.437504l52.60299 125.939472H374.924519l52.60299-125.939472a29.305287 29.305287 0 0 0-15.824855-38.536452l-3.077055-1.098949A214.44144 214.44144 0 0 1 511.853474 58.903627z m-351.663448 965.02311h703.326895v-58.610575h-703.326895zM884.836517 726.771124H139.016956c-30.477499 0-53.482149 30.990341-53.482149 72.017743v51.284253c0 41.027402 23.00465 72.017743 53.482149 72.017744h745.966088c30.477499 0 53.482149-30.990341 53.482149-72.017744v-51.284253c0-40.734349-23.00465-71.94448-53.482149-71.94448z m-5.421478 123.008943a38.02361 38.02361 0 0 1-2.05137 13.114116H146.416541a37.877084 37.877084 0 0 1-2.124633-13.114116v-51.284252a37.877084 37.877084 0 0 1 2.124633-13.114116h730.947128a38.02361 38.02361 0 0 1 2.05137 13.114116z" p-id="2872" fill="#d81e06"></path></svg>