<?xml version="1.0" standalone="no"?><!DOCTYPE svg PUBLIC "-//W3C//DTD SVG 1.1//EN" "http://www.w3.org/Graphics/SVG/1.1/DTD/svg11.dtd"><svg t="1629078792085" class="icon" viewBox="0 0 1024 1024" version="1.1" xmlns="http://www.w3.org/2000/svg" p-id="2803" xmlns:xlink="http://www.w3.org/1999/xlink" width="200" height="200"><defs><style type="text/css"></style></defs><path d="M854.336 468.32c13.888 0 27.232 5.6 38.624 16.128l46.72 43.168c12.544 11.616 20 28.16 20.32 45.248a63.744 63.744 0 0 1-18.4 46.016l-281.472 304.704-137.056 29.632h-0.128a16.064 16.064 0 0 1-18.24-16.896v-0.128l19.296-138.496 283.616-306.624c13.504-14.624 30.112-22.72 46.72-22.72zM786.144 64c30.624 0 55.52 24.896 55.52 55.52v284.992h-55.52V119.52H119.52v777.664h309.504v55.552H119.52A55.584 55.584 0 0 1 64 897.184V119.52C64 88.896 88.896 64 119.52 64z m-3.648 530.144l-209.024 225.888-2.368 62.848 62.88-6.912 208.96-225.856-60.448-55.968z m-338.816 165.312c12.672 0 22.88 12.416 22.88 27.776s-10.24 27.808-22.88 27.808H253.44c-12.672 0-22.88-12.416-22.88-27.808 0-15.36 10.208-27.776 22.88-27.776z m72.128-122.688c12.672 0 22.88 12.416 22.88 27.808 0 15.36-10.24 27.776-22.88 27.776H253.44c-12.672 0-22.88-12.416-22.88-27.776s10.208-27.808 22.88-27.808z m338.112-113.952a12.704 12.704 0 0 0-8.448 3.2l-0.064 0.064-27.84 30.112 60.448 55.904 27.84-30.112 0.064-0.128a12.64 12.64 0 0 0-0.608-16.128l-0.064-0.064-43.52-40.192-0.128-0.064a12.864 12.864 0 0 0-7.68-2.592z m-496-299.104c3.84 0 7.392 1.952 9.44 5.216l72.512 115.84c4.16 6.784 8.96 15.36 14.24 25.728h1.184c3.84-8.352 8.8-17.28 14.88-26.816l72.864-114.816a11.2 11.2 0 0 1 9.408-5.152h32.224c8.96 0 14.208 10.208 9.056 17.504l-85.056 120.32a11.104 11.104 0 0 0 9.024 17.504h54.4c6.112 0 11.104 4.992 11.104 11.136v12.032a11.136 11.136 0 0 1-11.136 11.136h-79.872a11.136 11.136 0 0 0-11.136 11.136v25.472c0 6.144 4.992 11.136 11.136 11.136h79.872c6.144 0 11.136 4.96 11.136 11.104v12.32a11.136 11.136 0 0 1-11.136 11.136h-79.872a11.136 11.136 0 0 0-11.136 11.104v46.4a11.136 11.136 0 0 1-11.136 11.104h-33.504a11.136 11.136 0 0 1-11.136-11.136v-46.368a11.136 11.136 0 0 0-11.136-11.104h-83.008A11.136 11.136 0 0 1 320 484.48v-12.32c0-6.144 4.992-11.104 11.136-11.104h83.008a11.136 11.136 0 0 0 11.136-11.136v-25.472a11.136 11.136 0 0 0-11.136-11.136h-83.008A11.136 11.136 0 0 1 320 402.24v-12.032c0-6.144 4.992-11.136 11.136-11.136h56.256c8.96 0 14.272-10.08 9.12-17.472L312.512 241.152a11.104 11.104 0 0 1 9.088-17.44h36.352z" fill="#ffffff" p-id="2804"></path></svg>