<?xml version="1.0" standalone="no"?><!DOCTYPE svg PUBLIC "-//W3C//DTD SVG 1.1//EN" "http://www.w3.org/Graphics/SVG/1.1/DTD/svg11.dtd"><svg t="1629680773716" class="icon" viewBox="0 0 1024 1024" version="1.1" xmlns="http://www.w3.org/2000/svg" p-id="2024" xmlns:xlink="http://www.w3.org/1999/xlink" width="200" height="200"><defs><style type="text/css"></style></defs><path d="M552.35468 988.639212v0.050443H76.472118C44.001734 988.689655 17.655172 962.282562 17.655172 929.726424V164.89931C17.655172 132.343172 44.001734 105.931034 76.472118 105.931034H189.162562v-47.305773C189.162562 26.260808 215.509123 0 247.979507 0h603.70601C884.196256 0 910.502463 26.255764 910.502463 58.625261V539.743842a20.17734 20.17734 0 1 1-40.20335-2.50199V61.142384a19.561931 19.561931 0 0 0-19.602285-19.541753H247.520473a19.561931 19.561931 0 0 0-19.60733 19.541753V105.931034h452.264985c32.510739 0 58.816946 26.407094 58.816946 58.963232V539.743842a20.17734 20.17734 0 1 1-40.20335-2.50199V167.426522a19.622463 19.622463 0 0 0-19.602286-19.652729H76.013084a19.622463 19.622463 0 0 0-19.60733 19.652729v758.269478a19.622463 19.622463 0 0 0 19.60733 19.652729H552.35468v0.010089a21.69064 21.69064 0 1 1 0 43.280394z m343.080354-13.947586l53.258089-56.062739c7.097379-7.47066 14.194759-7.47066 21.297182 0 7.097379 7.475704 7.097379 14.946365 0 22.422069l-63.896591 67.256118c-3.949714 4.161576-7.904473 6.002759-11.854187 5.533635-4.126266 0.484256-8.252532-1.483034-12.378798-5.901872l-37.16666-39.825024c-7.43535-7.965005-7.43535-15.93001 0-23.895015 7.430305-7.965005 14.865655-7.965005 22.295961 0l28.445004 30.467783zM379.904 218.873695h252.216749v40.869202h-252.216749v-40.869202z m85.753695 290.599093h166.463054v40.869202h-166.463054V509.477833z m-282.482759-190.892768h448.945813v40.874246h-448.945813v-40.874246z m116.019704 97.259822h332.926109v40.874247h-332.926109v-40.874247zM274.159606 554.876847c91.943094 0 166.463054 74.499783 166.463054 166.463054 0 91.927961-74.519961 166.463054-166.463054 166.463055-91.927961 0-166.463054-74.535094-166.463054-166.463055 0-91.963271 74.535094-166.463054 166.463054-166.463054z m-2.522168 300.137931c75.211034 0 136.197044-61.006187 136.197045-136.197044 0-75.231212-60.98601-136.197044-136.197045-136.197044-75.231212 0-136.197044 60.965833-136.197044 136.197044 0 75.190857 60.965833 136.197044 136.197044 136.197044z m-72.371073-97.532216l30.689734-4.827429c1.725163 12.298089 6.522325 21.725951 14.396532 28.273498 7.869163 6.557635 18.875901 9.831409 33.015172 9.831408 14.255291 0 24.828217-2.905537 31.728867-8.706522 6.890562-5.80603 10.340887-12.615882 10.340887-20.429556 0-7.011626-3.046778-12.530128-9.140335-16.555508-4.252374-2.759251-14.8253-6.265064-31.723823-10.517438-22.754995-5.750542-38.533675-10.719212-47.325951-14.911054-8.792276-4.196887-15.460887-10.002916-20.000788-17.418089-4.539901-7.415172-6.809852-15.602128-6.809852-24.565911 0-8.161734 1.866404-15.718148 5.604256-22.674286a50.241576 50.241576 0 0 1 15.259113-17.327291c4.827429-3.5613 11.405241-6.577813 19.738483-9.049537 8.333241-2.471724 17.271803-3.707586 26.81064-3.707586 14.37131 0 26.987192 2.068177 37.847646 6.204532 10.860453 4.136355 18.880946 9.740611 24.051389 16.812769 5.170443 7.067113 8.736788 16.520197 10.69399 28.359251l-30.351763 4.136354c-1.377103-9.422818-5.372217-16.777458-11.980296-22.063921-6.608079-5.286463-15.950187-7.934739-28.016236-7.934739-14.255291 0-24.42467 2.360749-30.518227 7.072158-6.093557 4.711409-9.140335 10.229911-9.140335 16.550463 0 4.025379 1.266128 7.642167 3.79334 10.860453 2.532256 3.334305 6.497103 6.093557 11.899586 8.277754 3.102266 1.150108 12.242601 3.79334 27.410916 7.929695 21.95799 5.861517 37.272591 10.663724 45.953892 14.396532 8.676256 3.732808 15.486108 9.165557 20.429557 16.293202s7.415172 15.980453 7.415172 26.553379c0 10.340887-3.021557 20.086542-9.054581 29.221832-6.033025 9.140335-14.744591 16.207448-26.119567 21.206385-11.38002 5.00398-24.253163 7.500926-38.624473 7.500926-23.789084 0-41.923468-4.943448-54.393064-14.830345-12.47464-9.881852-20.429557-24.535645-23.879881-43.961379z m620.322049-153.085478l169.883113 101.708926a31.663291 31.663291 0 0 1 12.328355 13.755901c2.446502 2.971113 3.79334 6.794719 3.783251 10.749478v111.953971c0 8.978916-6.799764 16.252847-15.193537 16.252847s-15.198581-7.278975-15.198581-16.252847v-70.822463l-152.898838 89.168709c-0.797005 0.464079-1.614187 0.892847-2.446502 1.281261v39.789714c0 8.978916-6.809852 16.252847-15.198581 16.252848-8.393773 0-15.198581-7.273931-15.198582-16.252848v-43.42668l-151.970679-90.979625v123.722404l157.993615 102.369734c7.142778 4.625655 9.458128 14.547862 5.180532 22.220295l-0.100886 0.186641a15.309557 15.309557 0 0 1-9.36733 7.440394 14.336 14.336 0 0 1-11.541439-1.866404l-165.075862-106.960079c-4.555034-2.945892-7.334463-8.222266-7.329419-13.912276a17.907389 17.907389 0 0 1-0.15133-2.370837v-167.794759c0-1.856315 0.287527-3.64201 0.822227-5.296552 0.554877-3.808473 1.730207-7.480749 3.465458-10.855408a31.653202 31.653202 0 0 1 12.121537-12.918542l166.881734-97.320355a28.465182 28.465182 0 0 1 29.211744 0.176552z m85.06262 88.174975l-168.682561 96.715035 71.86664 43.028177 166.795981-97.259823 0.040354-0.060532c0.105931-0.211862 0.03531-0.484256-0.040354-0.534699l-69.98006-41.893202v0.005044zM804.823645 632.811823l-166.790936 97.254778-0.040354 0.065576c-0.110975 0.206818-0.03531 0.484256 0.040354 0.524611l66.252296 39.66865 168.682562-96.715034-68.148966-40.798581z" p-id="2025" fill="#ffffff"></path></svg>