<?xml version="1.0" standalone="no"?><!DOCTYPE svg PUBLIC "-//W3C//DTD SVG 1.1//EN" "http://www.w3.org/Graphics/SVG/1.1/DTD/svg11.dtd"><svg t="1629680750040" class="icon" viewBox="0 0 1024 1024" version="1.1" xmlns="http://www.w3.org/2000/svg" p-id="1795" xmlns:xlink="http://www.w3.org/1999/xlink" width="200" height="200"><defs><style type="text/css"></style></defs><path d="M880 192v672H144V192h736z m-66.672 64h-608v544h608V256z" fill="#ffffff" p-id="1796"></path><path d="M160 368h704v64H160z" fill="#ffffff" p-id="1797"></path><path d="M602.72 574.08l32.16 11.2c-24.224 49.808-49.072 92.528-74.544 127.872a1254.912 1254.912 0 0 0 107.392-11.744 508.256 508.256 0 0 0-26.656-47.84l0.32-0.096-2.368-3.808 29.36-9.952a657.504 657.504 0 0 1 51.424 94.432l5.44 12.56-30.624 13.68-3.568-8.64-0.56 0.256c-2.4-5.904-4.8-11.68-7.216-17.328l-1.344-3.12-8.384 1.216c-47.104 6.688-89.552 9.488-146.768 13.232l-10.912 0.704-5.616-31.728c20.928-4.656 51.84-51.616 92.464-140.88z m53.856-98.592c16.128 53.536 43.984 97.696 83.552 132.48l5.472 4.672-4.336 4.992 0.32 0.288-20.816 24.048a258.848 258.848 0 0 1-63.968-82.32 329.76 329.76 0 0 1-26.048-61.056l-2.288-7.552 28.112-15.552z m-94.112 2.4l30.304 12.432c-2.752 8.096-5.6 15.968-8.56 23.6-19.232 55.232-44.512 97.648-75.568 127.504l-23.04-19.92 0.032-0.032-5.632-4.88c37.168-34.832 64.656-81.184 82.464-138.72z" fill="#ffffff" p-id="1798"></path></svg>