<?xml version="1.0" standalone="no"?><!DOCTYPE svg PUBLIC "-//W3C//DTD SVG 1.1//EN" "http://www.w3.org/Graphics/SVG/1.1/DTD/svg11.dtd"><svg t="1631602246687" class="icon" viewBox="0 0 2517 1024" version="1.1" xmlns="http://www.w3.org/2000/svg" p-id="1281" xmlns:xlink="http://www.w3.org/1999/xlink" width="491.6015625" height="200"><defs><style type="text/css"></style></defs><path d="M645.290667 66.858667A264.277333 264.277333 0 0 1 593.066667 0H274.688C228.693333 86.570667 125.056 150.4 0 164.053333v270.336l1.408 0.981334c14.506667 263.253333 193.194667 480.810667 432.512 546.304 39.978667-11.093333 78.677333-26.496 115.328-45.994667h1820.586667a133.632 133.632 0 0 0 133.461333-133.717333V200.533333a133.546667 133.546667 0 0 0-133.504-133.632H645.290667zM767.701333 401.066667c0 222.464-140.074667 410.837333-333.781333 476.288-193.706667-65.450667-333.781333-253.866667-333.781333-476.288V246.186667c93.952-27.136 173.44-78.976 226.986666-145.962667h213.546667c53.546667 66.986667 133.034667 118.912 226.986667 145.92V401.066667z" fill="#FAAD14" p-id="1282"></path><path d="M381.824 250.496h104.661333v313.130667H381.866667V250.453333z m0 377.045333h104.661333v103.637334H381.866667v-103.637334z" fill="#FAAD14" p-id="1283"></path><path d="M923.690667 447.530667c54.442667-39.893333 93.397333-85.888 117.802666-137.514667l-29.568-13.610667c-20.650667 44.586667-53.034667 84.010667-98.090666 118.741334l9.856 32.384z m420.992 22.058666v-30.976H1219.84V379.946667h105.6V349.44H1219.84V298.282667h-32.384V349.44h-104.661333v30.506667h104.661333v58.666666H1064.96v30.976h279.722667z m-328.533334 257.664v-237.482666a369.450667 369.450667 0 0 0 42.24-71.808l-29.098666-13.610667c-23.466667 52.565333-60.544 99.498667-111.232 140.330667l9.856 32.384c20.181333-15.488 38.954667-31.914667 55.850666-49.749334v199.936h32.384z m221.525334-2.346666c30.037333 0 45.525333-15.488 45.525333-45.994667v-120.618667h54.912v-31.445333h-54.912v-34.730667h-33.792v34.730667h-182.101333v31.445333h182.101333v112.170667c0 15.957333-7.978667 24.405333-23.466667 24.405333-19.712 0-40.832-0.938667-62.421333-2.346666l7.509333 32.384h66.645334z m-80.725334-59.605334l26.282667-18.773333c-14.08-19.712-34.261333-43.178667-60.544-69.930667l-26.282667 16.426667a601.472 601.472 0 0 1 60.544 72.277333z m332.288-262.357333l23.936-23.936a641.92 641.92 0 0 0-90.581333-71.338667l-23.466667 23.466667c38.485333 25.344 68.522667 49.28 90.112 71.808z m318.677334 310.698667v-34.261334h-227.626667V351.786667h223.402667v-32.853334h-257.194667v394.709334h261.418667z m-333.696-198.058667l24.405333-24.405333a617.258667 617.258667 0 0 0-85.418667-68.053334l-23.936 22.997334c36.138667 24.405333 64.298667 47.402667 84.949334 69.461333z m-44.586667 212.138667a1420.757333 1420.757333 0 0 0 70.869333-154.410667l-31.445333-12.202667a1212.842667 1212.842667 0 0 1-73.685333 151.125334l34.261333 15.488z m635.008-285.354667v-29.098667h-75.562667v-41.301333h86.357334v-30.037333h-86.357334V299.221333h-31.914666v42.709334h-99.498667v30.037333h99.498667v41.301333h-83.072v29.098667h190.549333z m177.408 69.461333c10.325333-38.954667 18.304-78.378667 24.405333-118.272V372.906667h-123.904c4.224-20.650667 7.978667-42.709333 10.794667-67.114667l-30.976-5.162667c-8.448 76.970667-26.752 137.045333-55.381333 180.224l25.813333 18.304c17.365333-24.405333 31.445333-56.32 42.24-95.744h99.029333c-6.101333 37.546667-14.08 70.4-23.466666 99.498667l31.445333 8.917333z m-173.184 220.117334c51.626667-35.669333 84.48-80.725333 99.029333-136.106667 0.938667-3.754667 1.408-7.04 2.346667-10.325333 21.589333 57.258667 52.565333 105.130667 92.928 144.554666l22.528-25.813333c-49.749333-43.648-84.949333-102.784-105.6-176.938667 2.816-26.282667 4.693333-55.381333 4.693333-86.826666h-30.976c0 61.013333-5.632 110.762667-16.896 150.186666-14.549333 46.933333-44.117333 85.418667-88.704 116.394667l20.650667 24.874667z m-18.773333-222.933334v-29.568h-160.512v29.568h160.512z m-100.906667 219.648c26.282667 0 39.424-12.672 39.424-37.077333v-117.333333h91.989333v-29.568h-219.648v29.568h95.744v109.824c0 10.794667-6.101333 16.426667-18.304 16.426666-11.264 0-23.466667-0.938667-35.669333-2.346666l6.570667 30.506666h39.893333z m97.621333-54.442666l26.282667-11.733334a553.386667 553.386667 0 0 0-30.506667-69.461333l-27.221333 8.917333c11.264 20.650667 22.058667 45.056 31.445333 72.277334z m-167.082666 22.528c18.773333-26.752 33.322667-58.197333 43.648-94.805334l-27.221334-5.162666a245.333333 245.333333 0 0 1-41.770666 83.541333l25.344 16.426667z" fill="#FFFFFF" p-id="1284"></path></svg>