<?xml version="1.0" standalone="no"?><!DOCTYPE svg PUBLIC "-//W3C//DTD SVG 1.1//EN" "http://www.w3.org/Graphics/SVG/1.1/DTD/svg11.dtd"><svg t="1629079197775" class="icon" viewBox="0 0 1024 1024" version="1.1" xmlns="http://www.w3.org/2000/svg" p-id="6557" xmlns:xlink="http://www.w3.org/1999/xlink" width="200" height="200"><defs><style type="text/css"></style></defs><path d="M753.004623 0.0026H136.923586C61.293704 0.0026 0.0008 60.711505 0.0008 135.609388v745.762835c0 74.897883 61.293904 135.605788 136.922786 135.605788h616.081037c75.629882 0 136.922786-60.707905 136.922786-135.605788V135.609388A136.264787 136.264787 0 0 0 753.004623 0.0026z m68.460893 881.368623a68.095894 68.095894 0 0 1-68.460893 67.803894H136.923586a68.095894 68.095894 0 0 1-68.460893-67.802894V135.609388c0-37.448941 30.645952-67.802894 68.460893-67.802894h616.081037c37.813941 0 68.460893 30.353953 68.460893 67.802894v745.762835z" p-id="6558" fill="#ffffff"></path><path d="M678.983739 727.114464H211.38347a33.864947 33.864947 0 0 0-33.353948 34.376946c0 19.01697 14.921977 34.376946 33.353948 34.376946H678.909739c18.431971 0 33.352948-15.359976 33.352948-34.376946s-14.920977-34.376946-33.352948-34.376946z m0-171.885732H211.38347a33.864947 33.864947 0 0 0-33.353948 34.376947c0 19.01697 14.921977 34.376946 33.353948 34.376946H678.909739c18.431971 0 33.352948-15.359976 33.352948-34.376946s-14.920977-34.376946-33.352948-34.376947zM460.214081 375.664013L560.565924 143.361376l6.72999-4.387993h60.122906l7.313988 7.313988v313.343511l-7.313988 7.313988h-51.34692l-7.313989-7.313988V275.31117l-79.871875 187.244707-6.728989 4.388993h-44.323931l-6.72999-4.388993-79.871875-187.244707v184.319712l-7.313988 7.313988h-51.34592l-7.313989-7.313988V146.288371l7.313989-7.313988h60.122906l6.729989 4.387993z" p-id="6559" fill="#ffffff"></path></svg>