<?xml version="1.0" standalone="no"?><!DOCTYPE svg PUBLIC "-//W3C//DTD SVG 1.1//EN" "http://www.w3.org/Graphics/SVG/1.1/DTD/svg11.dtd"><svg t="1629079100777" class="icon" viewBox="0 0 1024 1024" version="1.1" xmlns="http://www.w3.org/2000/svg" p-id="4578" xmlns:xlink="http://www.w3.org/1999/xlink" width="200" height="200"><defs><style type="text/css"></style></defs><path d="M384 947.2h-153.6c-40.96 0-76.8-35.84-76.8-76.8V153.6c0-40.96 35.84-76.8 76.8-76.8h563.2c40.96 0 76.8 35.84 76.8 76.8v281.6c0 15.36-10.24 25.6-25.6 25.6s-25.6-10.24-25.6-25.6V153.6c0-15.36-10.24-25.6-25.6-25.6h-563.2c-15.36 0-25.6 10.24-25.6 25.6v716.8c0 15.36 10.24 25.6 25.6 25.6h153.6c15.36 0 25.6 10.24 25.6 25.6s-10.24 25.6-25.6 25.6z m281.6-665.6c0-15.36-10.24-25.6-25.6-25.6h-307.2c-15.36 0-25.6 10.24-25.6 25.6s10.24 25.6 25.6 25.6h307.2c15.36 0 25.6-10.24 25.6-25.6zM665.6 460.8c0-15.36-10.24-25.6-25.6-25.6h-307.2c-15.36 0-25.6 10.24-25.6 25.6s10.24 25.6 25.6 25.6h307.2c15.36 0 25.6-10.24 25.6-25.6z m-102.4 179.2c0-15.36-10.24-25.6-25.6-25.6h-204.8c-15.36 0-25.6 10.24-25.6 25.6s10.24 25.6 25.6 25.6h204.8c15.36 0 25.6-10.24 25.6-25.6z m46.08 302.08l307.2-307.2c10.24-10.24 10.24-25.6 0-35.84l-102.4-102.4c-10.24-10.24-25.6-10.24-35.84 0l-307.2 307.2c-5.12 0-10.24 10.24-10.24 15.36v102.4c0 15.36 10.24 25.6 25.6 25.6h102.4c5.12 0 15.36-5.12 20.48-5.12zM512 829.44l281.6-281.6 66.56 66.56-281.6 281.6H512v-66.56z m302.08-143.36c10.24-10.24 10.24-25.6 0-35.84l-51.2-51.2c-10.24-10.24-25.6-10.24-35.84 0s-10.24 25.6 0 35.84l51.2 51.2c5.12 5.12 10.24 5.12 20.48 5.12s10.24 0 15.36-5.12z" p-id="4579" fill="#ffffff"></path></svg>