<?xml version="1.0" standalone="no"?><!DOCTYPE svg PUBLIC "-//W3C//DTD SVG 1.1//EN" "http://www.w3.org/Graphics/SVG/1.1/DTD/svg11.dtd"><svg t="1629764888635" class="icon" viewBox="0 0 1024 1024" version="1.1" xmlns="http://www.w3.org/2000/svg" p-id="10842" xmlns:xlink="http://www.w3.org/1999/xlink" width="200" height="200"><defs><style type="text/css"></style></defs><path d="M933.790476 511.926857c0-44.178286 26.819048-83.017143 68.315429-98.937905l21.26019-8.167619-5.607619-22.064762a518.704762 518.704762 0 0 0-56.685714-136.899047l-11.605333-19.577905-20.796953 9.264762c-13.702095 6.095238-28.550095 9.264762-43.568762 9.240381a104.813714 104.813714 0 0 1-74.727619-31.012572 105.350095 105.350095 0 0 1-21.625905-118.247619l9.264762-20.845714-19.626666-11.605333A521.508571 521.508571 0 0 0 641.414095 6.41219l-22.016-5.607619-8.192 21.211429c-16.042667 41.545143-54.881524 68.388571-98.986666 68.388571A105.447619 105.447619 0 0 1 413.305905 22.040381l-8.167619-21.23581-22.040381 5.607619a518.436571 518.436571 0 0 0-136.923429 56.661334l-19.577905 11.629714 9.264762 20.796952a105.472 105.472 0 0 1-21.650285 118.272 105.081905 105.081905 0 0 1-74.849524 30.939429 106.544762 106.544762 0 0 1-43.471238-9.191619l-20.72381-9.191619-11.629714 19.504762a515.705905 515.705905 0 0 0-56.807619 136.923428l-5.607619 22.016 21.211428 8.192c41.520762 16.042667 68.36419 54.881524 68.364191 98.986667 0 44.153905-26.819048 82.992762-68.33981 98.937905l-21.26019 8.167619 5.607619 22.064762A518.875429 518.875429 0 0 0 63.390476 777.99619l11.605334 19.577905 20.796952-9.264762a106.544762 106.544762 0 0 1 43.568762-9.264762c28.233143 0 54.759619 11.02019 74.703238 31.012572a105.374476 105.374476 0 0 1 21.650286 118.272l-9.264762 20.845714 19.626666 11.605333a521.142857 521.142857 0 0 0 136.972191 56.636953l22.016 5.607619 8.192-21.187048c16.042667-41.545143 54.905905-68.388571 98.986667-68.388571 44.178286 0 83.017143 26.819048 98.986666 68.36419l8.143238 21.23581 22.064762-5.607619a519.070476 519.070476 0 0 0 136.899048-56.661334l19.577905-11.629714-9.264762-20.796952a105.447619 105.447619 0 0 1 21.650285-118.272 105.081905 105.081905 0 0 1 74.825143-30.939429c15.09181 0 29.744762 3.096381 43.471238 9.191619l20.748191 9.191619 11.629714-19.504762a515.85219 515.85219 0 0 0 56.807619-136.923428l5.607619-22.064762-21.26019-8.167619a105.423238 105.423238 0 0 1-68.33981-98.962286z m-6.534095 221.720381a157.793524 157.793524 0 0 0-42.179048-5.680762c-41.984 0-81.408 16.310857-111.006476 45.933714a155.964952 155.964952 0 0 0-40.179809 153.185524 468.918857 468.918857 0 0 1-84.894477 35.108572 155.964952 155.964952 0 0 0-136.777142-79.920762 156.135619 156.135619 0 0 0-136.752762 79.945143 469.504 469.504 0 0 1-85.065143-35.181715c14.799238-53.906286-0.073143-113.078857-40.106667-153.112381a155.623619 155.623619 0 0 0-110.933333-46.031238c-14.433524 0-28.574476 1.926095-42.276572 5.729524a467.797333 467.797333 0 0 1-35.132952-84.918857 155.989333 155.989333 0 0 0 79.920762-136.777143c0-57.539048-30.72-109.031619-79.920762-136.728381 8.899048-29.42781 20.72381-57.880381 35.230476-84.967619 13.653333 3.779048 27.769905 5.680762 42.179048 5.680762 41.959619 0 81.408-16.310857 111.006476-45.933714a155.964952 155.964952 0 0 0 40.20419-153.185524 467.69981 467.69981 0 0 1 84.870096-35.108571 155.964952 155.964952 0 0 0 136.777143 79.920761c57.539048 0 109.031619-30.72 136.752761-79.945142 29.42781 8.923429 57.929143 20.72381 85.065143 35.181714-14.823619 53.906286 0.073143 113.078857 40.106667 153.112381a155.648 155.648 0 0 0 110.933333 46.031238c14.287238 0.024381 28.525714-1.901714 42.276572-5.705143a468.333714 468.333714 0 0 1 35.132952 84.894476 155.91619 155.91619 0 0 0-79.920762 136.777143 155.964952 155.964952 0 0 0 79.920762 136.777143 465.13981 465.13981 0 0 1-35.230476 84.918857z" fill="#ffffff" p-id="10843"></path><path d="M512.24381 354.352762a157.744762 157.744762 0 0 0-157.598477 157.574095 157.744762 157.744762 0 0 0 157.574096 157.598476 157.744762 157.744762 0 0 0 157.574095-157.598476 157.744762 157.744762 0 0 0-157.574095-157.574095z m0 263.972571a106.496 106.496 0 0 1-106.398477-106.398476 106.496 106.496 0 0 1 106.374096-106.374095 106.496 106.496 0 0 1 106.374095 106.374095 106.496 106.496 0 0 1-106.374095 106.398476z" fill="#ffffff" p-id="10844"></path></svg>