<?xml version="1.0" standalone="no"?><!DOCTYPE svg PUBLIC "-//W3C//DTD SVG 1.1//EN" "http://www.w3.org/Graphics/SVG/1.1/DTD/svg11.dtd"><svg t="1630110819157" class="icon" viewBox="0 0 1024 1024" version="1.1" xmlns="http://www.w3.org/2000/svg" p-id="1201" xmlns:xlink="http://www.w3.org/1999/xlink" width="200" height="200"><defs><style type="text/css"></style></defs><path d="M604.306286 296.374857a58.514286 58.514286 0 0 1 58.514285 58.514286v413.988571a58.514286 58.514286 0 0 1-58.514285 58.514286H450.194286a58.514286 58.514286 0 0 1-58.514286-58.514286v-413.988571a58.514286 58.514286 0 0 1 58.514286-58.514286h154.112z m-1.682286 60.416h-150.674286v409.819429h150.674286V356.790857zM947.346286 68.754286a58.514286 58.514286 0 0 1 58.514285 58.514285v641.609143a58.514286 58.514286 0 0 1-58.514285 58.514286h-154.038857a58.514286 58.514286 0 0 1-58.514286-58.514286V127.268571a58.514286 58.514286 0 0 1 58.514286-58.514285h154.038857z m-1.682286 60.342857h-150.674286v637.659428h150.674286V129.097143zM261.193143 523.922286a58.514286 58.514286 0 0 1 58.514286 58.514285v186.441143a58.514286 58.514286 0 0 1-58.514286 58.514286H107.154286a58.514286 58.514286 0 0 1-58.514286-58.514286V582.436571a58.514286 58.514286 0 0 1 58.514286-58.514285h154.038857z m-2.194286 60.781714h-150.674286v181.906286h150.674286V584.704zM77.897143 899.657143H994.742857a29.257143 29.257143 0 1 1 0 58.514286H77.897143a29.257143 29.257143 0 1 1 0-58.514286z" fill="#ffffff" p-id="1202"></path></svg>