<?xml version="1.0" standalone="no"?><!DOCTYPE svg PUBLIC "-//W3C//DTD SVG 1.1//EN" "http://www.w3.org/Graphics/SVG/1.1/DTD/svg11.dtd"><svg t="1609117665515" class="icon" viewBox="0 0 1026 1024" version="1.1" xmlns="http://www.w3.org/2000/svg" p-id="2333" xmlns:xlink="http://www.w3.org/1999/xlink" width="200.390625" height="200"><defs><style type="text/css"></style></defs><path d="M787.41409 1024c-133.12 0-238.933-105.813-238.933-238.933s105.813-238.934 238.933-238.934 238.933 105.814 238.933 238.934S920.53409 1024 787.41409 1024z m0-443.733c-112.64 0-204.8 92.16-204.8 204.8s92.16 204.8 204.8 204.8 204.8-92.16 204.8-204.8-92.16-204.8-204.8-204.8z" fill="#ffffff" p-id="2334"></path><path d="M565.54809 989.867H398.29309c-20.48 0-37.547-13.654-40.96-34.134L340.26709 839.68c-23.893-10.24-47.786-23.893-71.68-40.96l-112.64 44.373c-20.48 6.827-40.96 0-51.2-17.066L5.76109 662.187c-10.24-17.067-6.827-40.96 10.24-51.2l95.573-71.68c0-13.654-3.413-27.307-3.413-37.547s0-23.893 3.413-37.547l-95.573-71.68C-1.06591 378.88-4.47891 358.4 5.76109 337.92l98.986-174.08c10.24-17.067 34.134-23.893 51.2-17.067l112.64 44.374c23.894-17.067 47.787-30.72 71.68-40.96l17.067-116.054C360.74709 13.653 377.81409 0 398.29409 0h197.973c20.48 0 37.547 13.653 40.96 34.133l17.067 116.054c23.893 10.24 47.787 23.893 71.68 40.96l112.64-44.374c20.48-6.826 40.96 0 51.2 17.067l98.987 163.84c10.24 17.067 6.826 40.96-10.24 51.2l-95.574 71.68c0 10.24 3.414 23.893 3.414 37.547v10.24c0 6.826-3.414 10.24-6.827 13.653-3.413 3.413-10.24 3.413-13.653 3.413-64.854-17.066-129.707-13.653-191.147 17.067-6.827 3.413-13.653 3.413-17.067-3.413-6.826-3.414-6.826-10.24-6.826-17.067 3.413-13.653 6.826-27.307 6.826-40.96 0-95.573-75.093-170.667-170.666-170.667S316.37409 375.467 316.37409 471.04c0 109.227 98.987 194.56 211.627 163.84 6.826 0 13.653 0 17.066 6.827 3.414 6.826 3.414 13.653 3.414 17.066-23.894 44.374-34.134 85.334-34.134 126.294 0 64.853 23.894 126.293 64.854 177.493 3.413 3.413 6.826 13.653 3.413 17.067-3.413 6.826-10.24 10.24-17.067 10.24zM272.00009 761.173c3.413 0 6.826 0 10.24 3.414 23.893 17.066 51.2 34.133 78.506 44.373 6.827 3.413 10.24 6.827 10.24 13.653l17.067 126.294c0 3.413 3.413 6.826 6.827 6.826h133.12c-34.134-51.2-51.2-109.226-51.2-170.666 0-34.134 6.826-71.68 17.066-102.4-116.053 10.24-218.453-85.334-218.453-204.8 0-112.64 92.16-204.8 204.8-204.8s204.8 92.16 204.8 204.8v17.066c51.2-20.48 109.227-23.893 163.84-10.24 0-13.653-3.413-23.893-3.413-34.133 0-6.827 3.413-13.653 6.826-17.067l102.4-78.506c3.414-3.414 3.414-6.827 0-10.24l-98.986-163.84c-3.414-3.414-6.827-3.414-10.24-3.414l-122.88 47.787c-6.827 3.413-10.24 0-17.067-3.413-23.893-17.067-51.2-34.134-78.507-44.374-6.826-3.413-10.24-6.826-10.24-13.653L599.68109 37.547c0-3.414-3.414-6.827-6.827-6.827H394.88109c-3.414 0-6.827 3.413-6.827 6.827L370.98709 163.84c0 6.827-3.413 10.24-10.24 13.653-23.893 13.654-51.2 27.307-78.506 47.787-3.414 3.413-10.24 3.413-13.654 0l-122.88-47.787c-3.413 0-6.826 0-10.24 3.414L36.48109 348.16c-3.414 3.413 0 6.827 0 6.827l102.4 78.506c3.413 3.414 6.826 10.24 6.826 17.067-3.413 17.067-3.413 30.72-3.413 44.373s0 27.307 3.413 44.374c0 6.826-3.413 13.653-6.826 17.066l-102.4 78.507v6.827l98.986 163.84c3.414 3.413 6.827 3.413 10.24 3.413l122.88-47.787h3.414z" fill="#ffffff" p-id="2335"></path><path d="M804.48109 853.333c-10.24 0-17.067-6.826-17.067-17.066v-34.134c0-6.826 6.827-13.653 13.653-17.066 23.894-6.827 54.614-17.067 54.614-51.2 0-23.894-30.72-51.2-68.267-51.2s-64.853 27.306-68.267 51.2c0 10.24-10.24 17.066-17.066 17.066-10.24 0-17.067-10.24-17.067-17.066 3.413-40.96 44.373-85.334 102.4-85.334 54.613 0 102.4 37.547 102.4 85.334 0 40.96-23.893 68.266-68.267 81.92v20.48c0 10.24-6.826 17.066-17.066 17.066z m0 68.267c-10.24 0-17.067-6.827-17.067-17.067s6.827-17.066 17.067-17.066 17.066 6.826 17.066 17.066-6.826 17.067-17.066 17.067z" fill="#ffffff" p-id="2336"></path></svg>