<?xml version="1.0" standalone="no"?><!DOCTYPE svg PUBLIC "-//W3C//DTD SVG 1.1//EN" "http://www.w3.org/Graphics/SVG/1.1/DTD/svg11.dtd"><svg t="1629938634180" class="icon" viewBox="0 0 1073 1024" version="1.1" xmlns="http://www.w3.org/2000/svg" p-id="1257" xmlns:xlink="http://www.w3.org/1999/xlink" width="209.5703125" height="200"><defs><style type="text/css"></style></defs><path d="M590.434654 558.404683c8.791415 0 17.607805 0.124878 26.399219 0 6.144-0.099902 12.987317-2.297756 14.860488-9.091122 1.848195-6.76839-4.096-13.237073-4.745366-20.030439-1.348683-13.986341 6.243902-27.972683 13.911415-39.111805 8.841366-12.887415 20.180293-23.801756 28.89678-36.814049 16.983415-26.22439 26.823805-56.270049 33.092683-86.665366a553.459512 553.459512 0 0 0 10.814439-100.826536c1.198829-62.139317-8.841366-124.628293-47.703414-174.929171C632.218849 47.32878 582.567337 18.606829 529.24441 6.493659a257.573463 257.573463 0 0 0-184.619708 27.173463A223.232 223.232 0 0 0 243.848117 154.599024c-10.814439 31.169561-14.011317 64.312195-14.460878 97.155122a536.151415 536.151415 0 0 0 8.167024 102.225171c5.244878 29.07161 12.288 58.792585 25.150439 85.516488 6.119024 12.68761 13.93639 24.600976 23.701854 34.741073 9.990244 10.439805 19.905561 21.129366 25.774829 34.541268 5.819317 13.336976 6.268878 29.021659-3.896195 40.410537-10.289951 11.48878-25.075512 19.081366-38.462439 26.349268-30.220488 16.408976-61.315122 31.144585-91.810341 47.054049-29.646049 15.484878-59.042341 31.868878-86.565464 50.950244-25.6 17.732683-50.97522 37.987902-67.658926 64.786732a116.561171 116.561171 0 0 0-16.184196 41.634341c-2.747317 16.284098-2.797268 33.042732-3.821268 49.451707-1.048976 17.158244-3.346732 34.216585-3.746341 51.399805-0.324683 13.237073 3.546537 25.225366 14.485853 33.417366 21.154341 15.859512 53.922341 3.546537 59.441952-22.403122 1.448585-6.94322 1.323707-14.186146 1.798243-21.229268l1.898147-27.648c0.549463-7.817366 0.949073-15.659707 1.398634-23.477073 0.499512-8.99122 0.424585-18.65678 2.547512-27.473171 3.546537-14.485854 14.211122-26.174439 24.725854-36.214634 11.563707-11.03922 24.476098-20.48 37.813073-29.271415 28.04761-18.432 57.518829-34.691122 87.314732-50.101073 28.746927-14.885463 58.517854-28.122537 86.365658-44.756293 24.850732-14.860488 50.40078-33.467317 63.313171-60.266146 12.937366-26.773854 12.188098-58.392976 1.923122-85.916098a162.915902 162.915902 0 0 0-21.479025-39.76117c-9.265951-12.562732-20.804683-23.452098-28.597073-37.088781-16.408976-28.746927-22.428098-64.362146-25.924683-96.88039-3.646439-33.56722-5.194927-68.807805-0.22478-102.325073 4.545561-30.420293 15.709659-59.741659 36.389463-82.869073 19.830634-22.178341 46.404683-37.513366 74.677073-46.279805 58.442927-18.182244 128.39961-4.096 173.280781 38.462439 48.75239 46.279805 50.950244 115.612098 46.279805 178.40078-2.497561 33.841951-7.692488 69.457171-21.429073 100.75161a108.494049 108.494049 0 0 1-11.463805 20.679805c-4.570537 6.243902-10.24 11.638634-15.085269 17.682732a197.357268 197.357268 0 0 0-24.975609 39.011902 123.304585 123.304585 0 0 0-12.188098 46.154927 120.382439 120.382439 0 0 0 1.373659 24.476097c1.048976 6.993171 4.046049 11.738537 11.588683 12.412878 8.216976 0.749268 16.883512 0.074927 25.125463 0.074927M819.26119 848.67122a61.21522 61.21522 0 0 1 0-122.43044 61.21522 61.21522 0 0 1 0 122.43044m0-153.200391a91.885268 91.885268 0 0 0 0 183.720586 91.910244 91.910244 0 0 0 0-183.720586" fill="#ffffff" p-id="1258"></path><path d="M957.301385 932.689171l-48.802341-17.208195-49.201951 23.726829-16.983415 48.952195h-54.696585l-16.983415-48.952195-49.176976-23.726829-48.777365 17.208195-34.116683-42.858147 27.598048-43.807219-12.163122-53.272976L610.165385 765.252683l12.163122-53.422829 51.449756-5.744391 33.991805-42.708292-5.869268-51.449756 49.276878-23.776781L787.716995 624.839805h54.571707l36.514342-36.714146 49.301854 23.801756-5.894244 51.449756 34.041756 42.708292 51.449756 5.744391 12.138146 53.397853-43.832195 27.523122-12.138146 53.272976 27.548097 43.807219-34.116683 42.858147z m47.878244-119.18361l52.099122-32.693073-22.353171-98.304-0.249756-1.024-61.190244-6.843317-16.883512-21.229269 7.018147-61.190243-91.660488-44.20683-43.457561 43.657366H801.428605L758.020995 548.014829l-91.660488 44.20683 6.993171 61.190243-16.858537 21.229269-61.190243 6.843317L572.701971 780.812488l52.149073 32.693073 6.019122 26.449171-32.817951 52.124097 62.813658 78.848 0.649366 0.824195 58.018341-20.455024 24.426147 11.763512 20.205268 58.193171h101.725659l20.230244-58.193171 24.40117-11.763512 58.018342 20.455024 63.463024-79.672195-32.817951-52.124097 6.019122-26.474147z" fill="#ffffff" p-id="1259"></path></svg>